<svg width="41" height="45" viewBox="0 0 41 45" fill="none" xmlns="http://www.w3.org/2000/svg">
<g clip-path="url(#clip0_826_12)">
<path d="M9.90199 9.03604L12.1687 6.75706L5.94517 0.519826C5.32877 -0.11989 4.29485 -0.11989 3.67845 0.519826C3.06206 1.13955 3.06206 2.1591 3.67845 2.79882L9.90199 9.03604ZM35.4126 32.3857L33.1856 30.0867C30.0241 33.3053 25.6299 35.2444 20.7186 35.2444C10.916 35.2444 3.20125 27.4879 3.20125 17.6322C3.20125 12.7144 5.12997 8.29639 8.29142 5.13777L5.96504 2.93875C2.26672 6.6771 0 11.8548 0 17.6322C0 29.2471 9.16632 38.463 20.7186 38.463C26.5047 38.463 31.6745 36.144 35.4126 32.3857ZM31.3364 26.0485L28.9703 28.2076L35.9693 35.2444C36.5857 35.8642 37.5998 35.8642 38.2162 35.2444C38.8524 34.6247 38.8524 33.5851 38.2162 32.9654L31.3364 26.0485ZM19.1081 37.6234V42.9411H22.3093V37.6234H19.1081ZM13.5804 45.0001H27.8966C28.7715 45.0001 29.4873 44.2803 29.4873 43.4009C29.4873 42.521 28.7715 41.7816 27.8966 41.7816H13.5804C12.7056 41.7816 11.9699 42.521 11.9699 43.4009C11.9699 44.2803 12.7056 45.0001 13.5804 45.0001ZM20.7186 32.3257C28.7715 32.3257 35.3132 25.7486 35.3132 17.6322C35.3132 9.53582 28.7715 2.95874 20.7186 2.95874C12.6459 2.95874 6.10423 9.53582 6.10423 17.6322C6.10423 25.7486 12.6459 32.3257 20.7186 32.3257Z" fill="white" fill-opacity="0.85"/>
</g>
<defs>
<clipPath id="clip0_826_12">
<rect width="41" height="45" fill="white"/>
</clipPath>
</defs>
</svg>
